<svg version="1.1" id="Camada_1" xmlns="http://www.w3.org/2000/svg" x="0" y="0" viewBox="0 0 3000 1579.1" style="enable-background:new 0 0 3000 1579.1" xml:space="preserve"><style>.st0{fill:#fff}.st1{fill:#bf0a30}</style><path class="st0" d="M0 .2h3000v1578.9H0V.2z"/><path class="st1" d="M0 .2h3000v121.5H0V.2zM0 243.1h3000v121.5H0V243.1zM0 486.1h3000v121.5H0V486.1zM0 729h3000v121.5H0V729zM0 971.9h3000v121.5H0V971.9zM0 1214.8h3000v121.5H0v-121.5zM0 1457.7h3000v121.5H0v-121.5z"/><path d="M0 0h1200v850.2H0V0z" style="fill:#002868"/><path class="st0" d="m113.5 79-10.9-33.6L91.8 79H56.4l28.7 20.8-11 33.6 28.6-20.9 28.7 20.9-11-33.6L148.9 79h-35.4zM312.5 79l-10.9-33.6L290.7 79h-35.3L284 99.7l-11 33.6 28.6-20.9 28.6 20.9-10.9-33.6L347.8 79h-35.3zM511.5 79l-10.9-33.6L489.7 79h-35.4L483 99.8l-11 33.5 28.6-20.9 28.6 20.9-10.9-33.6L546.8 79h-35.3zM710.4 79l-10.9-33.6L688.6 79h-35.4l28.7 20.8-11 33.6 28.6-20.9 28.7 20.9-11-33.6L745.8 79h-35.4zM916.1 99.7 944.8 79h-35.4l-10.9-33.6-11 33.6h-35.3l28.6 20.8-10.9 33.6 28.6-20.9 28.6 20.9-11-33.7zM1115.1 99.7l28.6-20.8h-35.3l-10.9-33.6-11 33.7h-35.4l28.7 20.8-10.9 33.6 28.6-20.9 28.6 20.9-11-33.7zM202.1 130.6l-10.9 33.6h-35.3l28.6 20.8-10.9 33.6 28.6-20.8 28.6 20.8-10.9-33.6 28.7-20.8H213l-10.9-33.6zM412 164.2l-10.9-33.6-10.9 33.6h-35.3l28.6 20.8-10.9 33.6 28.6-20.8 28.6 20.8-10.9-33.6 28.6-20.8H412zM610.9 164.2l-10.8-33.6-10.9 33.6h-35.4l28.7 20.8-11 33.6 28.7-20.8 28.6 20.8-10.9-33.6 28.6-20.8h-35.6zM809.9 164.2 799 130.6l-10.8 33.6h-35.4l28.6 20.8-10.9 33.6 28.6-20.8 28.6 20.8-10.9-33.6 28.7-20.8h-35.6zM1008.8 164.2l-10.9-33.6-10.9 33.6h-35.3l28.6 20.8-10.9 33.6 28.6-20.8 28.6 20.8-10.9-33.6 28.6-20.8h-35.5zM113.5 249.5l-10.9-33.7-10.8 33.7-35.4-.1 28.7 20.8-11 33.7 28.6-20.9 28.7 20.9-11-33.7 28.7-20.8-35.6.1zM312.5 249.5l-10.9-33.7-10.9 33.7-35.3-.1 28.6 20.8-11 33.7 28.6-20.9 28.6 20.9-10.9-33.7 28.6-20.8-35.4.1zM511.5 249.5l-10.9-33.7-10.9 33.7-35.4-.1 28.7 20.8-11 33.7 28.6-20.9 28.6 20.9-10.9-33.7 28.6-20.8-35.4.1zM710.4 249.5l-10.9-33.7-10.8 33.7-35.4-.1 28.7 20.8-11 33.7 28.6-20.9 28.7 20.9-11-33.7 28.7-20.8-35.6.1zM909.3 249.5l-10.9-33.7-10.9 33.7-35.3-.1 28.6 20.8-10.9 33.7 28.6-20.9 28.6 20.9-10.9-33.7 28.7-20.8-35.6.1zM1115.1 270.2l28.6-20.8-35.3.1-10.9-33.7-10.9 33.7-35.4-.1 28.7 20.8-10.9 33.7 28.6-20.9 28.6 20.9-11.1-33.7zM202.1 296.8l-10.9 33.6h-35.3l28.6 20.8-10.9 33.6 28.6-20.8 28.6 20.8-10.9-33.6 28.7-20.8H213l-10.9-33.6zM412 330.4l-10.9-33.6-10.9 33.6h-35.3l28.6 20.8-10.9 33.6 28.6-20.8 28.6 20.8-10.9-33.6 28.6-20.8H412zM610.9 330.4l-10.8-33.6-10.9 33.6h-35.4l28.7 20.8-11 33.6 28.7-20.8 28.6 20.8-10.9-33.6 28.6-20.8h-35.6zM809.9 330.4 799 296.8l-10.8 33.6h-35.4l28.6 20.8-10.9 33.6 28.6-20.8 28.6 20.8-10.9-33.6 28.7-20.8h-35.6zM1008.8 330.4l-10.9-33.6-10.9 33.6h-35.3l28.6 20.8-10.9 33.6L998 364l28.6 20.8-10.9-33.6 28.6-20.8h-35.5zM113.5 415.7 102.6 382l-10.8 33.7-35.4-.1 28.7 20.8L74 470l28.6-20.8 28.7 20.8-11-33.6 28.7-20.8-35.5.1zM312.5 415.7 301.6 382l-10.9 33.7-35.3-.1 28.6 20.8-11 33.6 28.6-20.8 28.6 20.8-10.9-33.6 28.6-20.8-35.4.1zM511.5 415.7 500.6 382l-10.9 33.7-35.4-.1 28.7 20.8-11 33.6 28.6-20.8 28.6 20.8-10.9-33.6 28.6-20.8-35.4.1zM710.4 415.7l-11-33.7-10.8 33.7-35.4-.1 28.7 20.8-11 33.6 28.6-20.8 28.7 20.8-11-33.6 28.7-20.8-35.5.1zM909.3 415.7 898.4 382l-10.9 33.7-35.3-.1 28.6 20.8-10.9 33.6 28.6-20.8L927 470l-10.9-33.6 28.7-20.8-35.5.1zM1115.1 436.4l28.6-20.8-35.3.1-10.9-33.7-10.9 33.7-35.4-.1 28.7 20.8L1069 470l28.6-20.8L1126 470l-10.9-33.6zM202.1 465.4 191.2 499h-35.3l28.6 20.8-10.9 33.6 28.6-20.8 28.6 20.8-10.9-33.6 28.7-20.8H213l-10.9-33.6zM412 499l-10.9-33.6-10.9 33.6h-35.3l28.6 20.8-10.9 33.6 28.6-20.8 28.6 20.8-10.9-33.6 28.6-20.8H412zM610.9 499l-10.8-33.6-10.9 33.6h-35.4l28.7 20.8-11 33.6 28.7-20.8 28.6 20.8-10.9-33.6 28.6-20.8h-35.6zM809.9 499 799 465.4 788.1 499h-35.4l28.6 20.8-10.9 33.6 28.6-20.8 28.6 20.8-10.9-33.6 28.7-20.8h-35.5zM1008.8 499l-10.9-33.6L987 499h-35.3l28.6 20.8-10.9 33.6 28.6-20.8 28.6 20.8-10.9-33.6 28.6-20.8h-35.5zM113.5 584.4l-10.9-33.7-10.8 33.7-35.4-.1L85.1 605l-11 33.7 28.6-20.9 28.7 20.9-11-33.7 28.7-20.8-35.6.2zM312.5 584.4l-10.9-33.7-10.9 33.7-35.3-.1L284 605l-11 33.7 28.6-20.9 28.6 20.9-11-33.7 28.6-20.8-35.3.2zM511.5 584.4l-10.9-33.7-10.9 33.7-35.4-.1 28.7 20.8-11 33.6 28.6-20.9 28.6 20.9-11-33.7 28.6-20.8-35.3.2zM710.4 584.4l-10.9-33.7-10.8 33.7-35.4-.1 28.7 20.8-11 33.7 28.6-20.9 28.7 20.9-11-33.7 28.7-20.8-35.6.1zM909.3 584.4l-10.9-33.7-10.9 33.7-35.3-.1 28.6 20.8-10.9 33.7 28.6-20.9 28.6 20.9-11-33.8 28.7-20.8-35.5.2zM1115.1 605l28.6-20.8-35.3.1-10.9-33.7-10.9 33.7-35.4-.1 28.7 20.8-10.9 33.7 28.6-20.9 28.6 20.9-11.1-33.7zM202.1 631.6l-10.9 33.6h-35.3l28.6 20.8-10.9 33.6 28.6-20.8 28.6 20.8-11.1-33.6 28.7-20.8H213l-10.9-33.6zM412 665.2l-10.9-33.6-10.9 33.6h-35.3l28.6 20.8-10.9 33.6 28.6-20.8 28.6 20.8-11.1-33.6 28.6-20.8H412zM610.9 665.2l-10.8-33.6-10.9 33.6h-35.4l28.7 20.8-11 33.6 28.7-20.8 28.6 20.8-11.1-33.6 28.6-20.8h-35.4zM809.9 665.2 799 631.6l-10.8 33.6h-35.4l28.6 20.8-10.9 33.6 28.6-20.8 28.6 20.8-11.1-33.6 28.7-20.8h-35.4zM1008.8 665.2l-10.9-33.6-10.9 33.6h-35.3l28.6 20.8-10.9 33.6 28.6-20.8 28.6 20.8-10.9-33.6 28.6-20.8h-35.5zM113.5 750.6l-10.9-33.7-10.8 33.7-35.4-.1 28.7 20.8-11 33.6 28.6-20.8 28.7 20.8-11-33.6 28.7-20.8-35.6.1zM312.5 750.6l-10.9-33.7-10.9 33.7-35.3-.1 28.6 20.8-11 33.5 28.6-20.8 28.6 20.8-10.9-33.6 28.6-20.8-35.4.2zM511.5 750.6l-10.9-33.7-10.9 33.7-35.4-.1 28.7 20.8-11 33.5 28.6-20.8 28.6 20.8-10.9-33.6 28.6-20.8-35.4.2zM710.4 750.6l-10.9-33.7-10.8 33.7-35.4-.1 28.7 20.8-11 33.6 28.6-20.8 28.7 20.8-11-33.6 28.7-20.8-35.6.1zM909.3 750.6l-10.9-33.7-10.9 33.7-35.3-.1 28.6 20.8-10.9 33.6 28.6-20.8 28.6 20.8-10.9-33.6 28.7-20.8-35.6.1zM1115.1 771.2l28.6-20.8-35.3.1-10.9-33.7-10.9 33.7-35.4-.1 28.7 20.8-10.9 33.6 28.6-20.8 28.6 20.8-11.1-33.6z"/></svg>